<?xml version="1.0" encoding="utf-8"?>
<!-- Generator: Adobe Illustrator 25.0.1, SVG Export Plug-In . SVG Version: 6.00 Build 0)  -->
<svg version="1.1" id="Layer_1" xmlns="http://www.w3.org/2000/svg" xmlns:xlink="http://www.w3.org/1999/xlink" x="0px" y="0px"
	 viewBox="0 0 16 16" enable-background="new 0 0 16 16" xml:space="preserve">
<g transform="translate(4 4)">
	<defs>
		<filter id="Adobe_OpacityMaskFilter" filterUnits="userSpaceOnUse" x="-2.5" y="-2.5" width="13" height="13">
			<feColorMatrix  type="matrix" values="1 0 0 0 0  0 1 0 0 0  0 0 1 0 0  0 0 0 1 0"/>
		</filter>
	</defs>
	<mask maskUnits="userSpaceOnUse" x="-2.5" y="-2.5" width="13" height="13" id="github-b_1_">
		<g filter="url(#Adobe_OpacityMaskFilter)">
			<polygon id="github-a_1_" fill-rule="evenodd" clip-rule="evenodd" fill="#FFFFFF" points="-2.5,-2.5 10.5,-2.5 10.5,10.5 
				-2.5,10.5 			"/>
		</g>
	</mask>
	<path mask="url(#github-b_1_)" fill-rule="evenodd" clip-rule="evenodd" d="M0,5.4c0,0,0-0.1,0-0.1c0.1-0.1,0.2-0.1,0.3-0.1
		c0.1,0,0.2,0,0.2,0.1c0.1,0.1,0.2,0.2,0.4,0.3C1,5.8,1.1,5.9,1.2,6C1.6,6.3,2,6.3,2.5,6.1c0-0.1,0.1-0.2,0.2-0.3
		c0.1-0.1,0.1-0.1,0.2-0.2c0.1,0,0.2-0.1,0.4-0.2c-0.6-0.1-1-0.1-1.4-0.3C1.5,5,1.2,4.8,1,4.6C0.7,4.3,0.6,3.9,0.5,3.4
		C0.4,2.9,0.5,2.5,0.6,2c0.1-0.3,0.2-0.5,0.4-0.7C0.9,0.9,0.9,0.5,1.1-0.1c0.5,0,1,0.2,1.5,0.6c0.8-0.2,1.7-0.2,2.6,0
		c0.1-0.1,0.3-0.2,0.5-0.3C6,0,6.3-0.1,6.7-0.1c0.1,0.2,0.1,0.4,0.1,0.7c0,0.3,0,0.5,0,0.7c0.4,0.4,0.6,0.9,0.6,1.6
		c0,0.5-0.1,1-0.3,1.3C7,4.6,6.6,4.9,6.2,5.1C5.8,5.3,5.4,5.4,4.9,5.4c0.2,0.1,0.4,0.2,0.5,0.4c0.1,0.1,0.2,0.3,0.2,0.6v0.8l0,0.8
		C5.7,8,5.8,8.1,5.8,8.2C5.9,8.2,6,8.3,6,8.3c0.1,0,0.1,0.1,0.1,0.1C6,8.5,6,8.5,5.9,8.5c-0.3,0-0.5-0.1-0.7-0.3
		C5.1,8.1,5.1,8,5.1,7.9V6.7c0-0.1,0-0.2-0.1-0.3C4.9,6.3,4.9,6.3,4.8,6.3v1.6c0,0.3,0,0.5,0.1,0.6C5,8.5,5,8.6,5,8.7c0,0,0,0,0,0
		c0,0-0.1,0-0.2,0C4.5,8.6,4.4,8.5,4.3,8.3C4.2,8.2,4.2,8,4.2,7.8V6.2H3.8v1.6c0,0.2,0,0.4-0.1,0.6C3.6,8.6,3.4,8.7,3.1,8.7
		C3,8.7,3,8.7,3,8.7c0,0,0.1-0.1,0.2-0.3c0,0,0-0.1,0.1-0.2c0-0.1,0-0.2,0-0.4V6.3C3.2,6.3,3.1,6.3,3,6.4C3,6.4,3,6.5,3,6.7v1.2
		c0,0.1,0,0.2-0.1,0.3C2.7,8.4,2.5,8.5,2.2,8.5C2.1,8.5,2,8.5,2,8.4c0,0,0-0.1,0-0.1c0,0,0.1-0.1,0.1-0.1s0.1-0.1,0.1-0.1
		C2.3,8.1,2.3,8,2.4,8c0.1-0.1,0.1-0.2,0-0.5c0-0.3,0-0.5,0-0.6C2,7,1.5,6.9,1.1,6.6C0.9,6.5,0.8,6.3,0.6,6.1C0.5,5.9,0.3,5.7,0,5.4
		 M-1.8,4c0,1.6,0.6,3,1.7,4.1C1,9.2,2.4,9.8,4,9.8c1.6,0,3-0.6,4.1-1.7C9.2,7,9.8,5.6,9.8,4c0-1.6-0.6-3-1.7-4.1
		C7-1.2,5.6-1.8,4-1.8c-1.6,0-3,0.6-4.1,1.7C-1.2,1-1.8,2.4-1.8,4 M-2.5,4c0-1.8,0.6-3.3,1.9-4.6C0.7-1.9,2.2-2.5,4-2.5
		c1.8,0,3.3,0.6,4.6,1.9s1.9,2.8,1.9,4.6c0,1.8-0.6,3.3-1.9,4.6S5.8,10.5,4,10.5c-1.8,0-3.3-0.6-4.6-1.9C-1.9,7.3-2.5,5.8-2.5,4"/>
</g>
</svg>
